<?xml version="1.0" encoding="UTF-8" standalone="no"?>
<!DOCTYPE svg PUBLIC "-//W3C//DTD SVG 1.1//EN"
 "http://www.w3.org/Graphics/SVG/1.1/DTD/svg11.dtd">
<!-- Generated by graphviz version 2.38.0 (20140413.2041)
 -->
<!-- Title: G Pages: 1 -->
<svg width="521pt" height="1158pt"
 viewBox="0.00 0.00 521.18 1158.00" xmlns="http://www.w3.org/2000/svg" xmlns:xlink="http://www.w3.org/1999/xlink">
<g id="graph0" class="graph" transform="scale(1 1) rotate(0) translate(4 1154)">
<title>G</title>
<polygon fill="white" stroke="none" points="-4,4 -4,-1154 517.175,-1154 517.175,4 -4,4"/>
<g id="clust1" class="cluster"><title>cluster_Global</title>
<path fill="none" stroke="gray" d="M338.175,-8C338.175,-8 493.175,-8 493.175,-8 499.175,-8 505.175,-14 505.175,-20 505.175,-20 505.175,-1130 505.175,-1130 505.175,-1136 499.175,-1142 493.175,-1142 493.175,-1142 338.175,-1142 338.175,-1142 332.175,-1142 326.175,-1136 326.175,-1130 326.175,-1130 326.175,-20 326.175,-20 326.175,-14 332.175,-8 338.175,-8"/>
<text text-anchor="middle" x="415.675" y="-1129.2" font-family="Times,serif" font-size="11.00" fill="gray">Global</text>
</g>
<g id="clust2" class="cluster"><title>cluster_\LRC</title>
<path fill="none" stroke="gray" d="M346.175,-16C346.175,-16 485.175,-16 485.175,-16 491.175,-16 497.175,-22 497.175,-28 497.175,-28 497.175,-1102 497.175,-1102 497.175,-1108 491.175,-1114 485.175,-1114 485.175,-1114 346.175,-1114 346.175,-1114 340.175,-1114 334.175,-1108 334.175,-1102 334.175,-1102 334.175,-28 334.175,-28 334.175,-22 340.175,-16 346.175,-16"/>
<text text-anchor="middle" x="415.675" y="-1101.2" font-family="Times,serif" font-size="11.00" fill="gray">LRC</text>
</g>
<g id="clust3" class="cluster"><title>cluster_\LRC\Webshop</title>
<path fill="none" stroke="gray" d="M354.175,-852C354.175,-852 477.175,-852 477.175,-852 483.175,-852 489.175,-858 489.175,-864 489.175,-864 489.175,-1074 489.175,-1074 489.175,-1080 483.175,-1086 477.175,-1086 477.175,-1086 354.175,-1086 354.175,-1086 348.175,-1086 342.175,-1080 342.175,-1074 342.175,-1074 342.175,-864 342.175,-864 342.175,-858 348.175,-852 354.175,-852"/>
<text text-anchor="middle" x="415.675" y="-1073.2" font-family="Times,serif" font-size="11.00" fill="gray">Webshop</text>
</g>
<g id="clust4" class="cluster"><title>cluster_\LRC\Content</title>
<path fill="none" stroke="gray" d="M381.175,-718C381.175,-718 450.175,-718 450.175,-718 456.175,-718 462.175,-724 462.175,-730 462.175,-730 462.175,-832 462.175,-832 462.175,-838 456.175,-844 450.175,-844 450.175,-844 381.175,-844 381.175,-844 375.175,-844 369.175,-838 369.175,-832 369.175,-832 369.175,-730 369.175,-730 369.175,-724 375.175,-718 381.175,-718"/>
<text text-anchor="middle" x="415.675" y="-831.2" font-family="Times,serif" font-size="11.00" fill="gray">Content</text>
</g>
<g id="clust5" class="cluster"><title>cluster_\LRC\Navbar</title>
<path fill="none" stroke="gray" d="M391.175,-638C391.175,-638 440.175,-638 440.175,-638 446.175,-638 452.175,-644 452.175,-650 452.175,-650 452.175,-698 452.175,-698 452.175,-704 446.175,-710 440.175,-710 440.175,-710 391.175,-710 391.175,-710 385.175,-710 379.175,-704 379.175,-698 379.175,-698 379.175,-650 379.175,-650 379.175,-644 385.175,-638 391.175,-638"/>
<text text-anchor="middle" x="415.675" y="-697.2" font-family="Times,serif" font-size="11.00" fill="gray">Navbar</text>
</g>
<g id="clust6" class="cluster"><title>cluster_\LRC\Session</title>
<path fill="none" stroke="gray" d="M387.675,-558C387.675,-558 443.675,-558 443.675,-558 449.675,-558 455.675,-564 455.675,-570 455.675,-570 455.675,-618 455.675,-618 455.675,-624 449.675,-630 443.675,-630 443.675,-630 387.675,-630 387.675,-630 381.675,-630 375.675,-624 375.675,-618 375.675,-618 375.675,-570 375.675,-570 375.675,-564 381.675,-558 387.675,-558"/>
<text text-anchor="middle" x="415.675" y="-617.2" font-family="Times,serif" font-size="11.00" fill="gray">Session</text>
</g>
<g id="clust7" class="cluster"><title>cluster_\LRC\Database</title>
<path fill="none" stroke="gray" d="M370.675,-478C370.675,-478 460.675,-478 460.675,-478 466.675,-478 472.675,-484 472.675,-490 472.675,-490 472.675,-538 472.675,-538 472.675,-544 466.675,-550 460.675,-550 460.675,-550 370.675,-550 370.675,-550 364.675,-550 358.675,-544 358.675,-538 358.675,-538 358.675,-490 358.675,-490 358.675,-484 364.675,-478 370.675,-478"/>
<text text-anchor="middle" x="415.675" y="-537.2" font-family="Times,serif" font-size="11.00" fill="gray">Database</text>
</g>
<g id="clust8" class="cluster"><title>cluster_\LRC\Formatter</title>
<path fill="none" stroke="gray" d="M381.175,-398C381.175,-398 450.175,-398 450.175,-398 456.175,-398 462.175,-404 462.175,-410 462.175,-410 462.175,-458 462.175,-458 462.175,-464 456.175,-470 450.175,-470 450.175,-470 381.175,-470 381.175,-470 375.175,-470 369.175,-464 369.175,-458 369.175,-458 369.175,-410 369.175,-410 369.175,-404 375.175,-398 381.175,-398"/>
<text text-anchor="middle" x="415.675" y="-457.2" font-family="Times,serif" font-size="11.00" fill="gray">Formatter</text>
</g>
<g id="clust9" class="cluster"><title>cluster_\LRC\Cookie</title>
<path fill="none" stroke="gray" d="M391.175,-318C391.175,-318 440.175,-318 440.175,-318 446.175,-318 452.175,-324 452.175,-330 452.175,-330 452.175,-378 452.175,-378 452.175,-384 446.175,-390 440.175,-390 440.175,-390 391.175,-390 391.175,-390 385.175,-390 379.175,-384 379.175,-378 379.175,-378 379.175,-330 379.175,-330 379.175,-324 385.175,-318 391.175,-318"/>
<text text-anchor="middle" x="415.675" y="-377.2" font-family="Times,serif" font-size="11.00" fill="gray">Cookie</text>
</g>
<g id="clust10" class="cluster"><title>cluster_\LRC\App</title>
<path fill="none" stroke="gray" d="M392.675,-238C392.675,-238 438.675,-238 438.675,-238 444.675,-238 450.675,-244 450.675,-250 450.675,-250 450.675,-298 450.675,-298 450.675,-304 444.675,-310 438.675,-310 438.675,-310 392.675,-310 392.675,-310 386.675,-310 380.675,-304 380.675,-298 380.675,-298 380.675,-250 380.675,-250 380.675,-244 386.675,-238 392.675,-238"/>
<text text-anchor="middle" x="415.675" y="-297.2" font-family="Times,serif" font-size="11.00" fill="gray">App</text>
</g>
<g id="clust11" class="cluster"><title>cluster_\LRC\Calendar</title>
<path fill="none" stroke="gray" d="M392.675,-158C392.675,-158 438.675,-158 438.675,-158 444.675,-158 450.675,-164 450.675,-170 450.675,-170 450.675,-218 450.675,-218 450.675,-224 444.675,-230 438.675,-230 438.675,-230 392.675,-230 392.675,-230 386.675,-230 380.675,-224 380.675,-218 380.675,-218 380.675,-170 380.675,-170 380.675,-164 386.675,-158 392.675,-158"/>
<text text-anchor="middle" x="415.675" y="-217.2" font-family="Times,serif" font-size="11.00" fill="gray">Calendar</text>
</g>
<g id="clust12" class="cluster"><title>cluster_\LRC\User</title>
<path fill="none" stroke="gray" d="M381.175,-24C381.175,-24 450.175,-24 450.175,-24 456.175,-24 462.175,-30 462.175,-36 462.175,-36 462.175,-138 462.175,-138 462.175,-144 456.175,-150 450.175,-150 450.175,-150 381.175,-150 381.175,-150 375.175,-150 369.175,-144 369.175,-138 369.175,-138 369.175,-36 369.175,-36 369.175,-30 375.175,-24 381.175,-24"/>
<text text-anchor="middle" x="415.675" y="-137.2" font-family="Times,serif" font-size="11.00" fill="gray">User</text>
</g>
<!-- \\LRC\\Webshop\\ProductFunctions -->
<g id="node1" class="node"><title>\\LRC\\Webshop\\ProductFunctions</title>
<polygon fill="none" stroke="black" points="478.175,-1058 353.175,-1058 353.175,-1022 478.175,-1022 478.175,-1058"/>
<text text-anchor="middle" x="415.675" y="-1037.2" font-family="Courier,monospace" font-size="11.00">ProductFunctions</text>
</g>
<!-- \\LRC\\Webshop\\CategoryFunctions -->
<g id="node2" class="node"><title>\\LRC\\Webshop\\CategoryFunctions</title>
<polygon fill="none" stroke="black" points="481.175,-1004 350.175,-1004 350.175,-968 481.175,-968 481.175,-1004"/>
<text text-anchor="middle" x="415.675" y="-983.2" font-family="Courier,monospace" font-size="11.00">CategoryFunctions</text>
</g>
<!-- \\LRC\\Webshop\\Product -->
<g id="node3" class="node"><title>\\LRC\\Webshop\\Product</title>
<polygon fill="none" stroke="black" points="447.675,-950 383.675,-950 383.675,-914 447.675,-914 447.675,-950"/>
<text text-anchor="middle" x="415.675" y="-929.2" font-family="Courier,monospace" font-size="11.00">Product</text>
</g>
<!-- \\LRC\\Webshop\\Category -->
<g id="node4" class="node"><title>\\LRC\\Webshop\\Category</title>
<polygon fill="none" stroke="black" points="451.175,-896 380.175,-896 380.175,-860 451.175,-860 451.175,-896"/>
<text text-anchor="middle" x="415.675" y="-875.2" font-family="Courier,monospace" font-size="11.00">Category</text>
</g>
<!-- \\LRC\\Content\\Functions -->
<g id="node5" class="node"><title>\\LRC\\Content\\Functions</title>
<polygon fill="none" stroke="black" points="454.175,-816 377.175,-816 377.175,-780 454.175,-780 454.175,-816"/>
<text text-anchor="middle" x="415.675" y="-795.2" font-family="Courier,monospace" font-size="11.00">Functions</text>
</g>
<!-- \\LRC\\Content\\Content -->
<g id="node6" class="node"><title>\\LRC\\Content\\Content</title>
<polygon fill="none" stroke="black" points="447.675,-762 383.675,-762 383.675,-726 447.675,-726 447.675,-762"/>
<text text-anchor="middle" x="415.675" y="-741.2" font-family="Courier,monospace" font-size="11.00">Content</text>
</g>
<!-- \\LRC\\Navbar\\Navbar -->
<g id="node7" class="node"><title>\\LRC\\Navbar\\Navbar</title>
<polygon fill="none" stroke="black" points="444.175,-682 387.175,-682 387.175,-646 444.175,-646 444.175,-682"/>
<text text-anchor="middle" x="415.675" y="-661.2" font-family="Courier,monospace" font-size="11.00">Navbar</text>
</g>
<!-- \\Anax\\Common\\ConfigureInterface -->
<g id="node16" class="node"><title>\\Anax\\Common\\ConfigureInterface</title>
<ellipse fill="none" stroke="black" cx="139.088" cy="-584" rx="139.175" ry="18"/>
<text text-anchor="middle" x="139.088" y="-580.3" font-family="Times,serif" font-size="14.00" fill="gray">\Anax\Common\ConfigureInterface</text>
</g>
<!-- \\LRC\\Navbar\\Navbar&#45;&gt;\\Anax\\Common\\ConfigureInterface -->
<g id="edge1" class="edge"><title>\\LRC\\Navbar\\Navbar&#45;&gt;\\Anax\\Common\\ConfigureInterface</title>
<path fill="none" stroke="black" stroke-dasharray="1,5" d="M387.09,-655.963C345.178,-643.752 264.236,-620.17 206.431,-603.329"/>
<polygon fill="none" stroke="black" points="207.223,-599.914 196.643,-600.477 205.265,-606.635 207.223,-599.914"/>
</g>
<!-- \\LRC\\Session\\Session -->
<g id="node8" class="node"><title>\\LRC\\Session\\Session</title>
<polygon fill="none" stroke="black" points="447.675,-602 383.675,-602 383.675,-566 447.675,-566 447.675,-602"/>
<text text-anchor="middle" x="415.675" y="-581.2" font-family="Courier,monospace" font-size="11.00">Session</text>
</g>
<!-- \\LRC\\Database\\DbConnection -->
<g id="node9" class="node"><title>\\LRC\\Database\\DbConnection</title>
<polygon fill="none" stroke="black" points="464.675,-522 366.675,-522 366.675,-486 464.675,-486 464.675,-522"/>
<text text-anchor="middle" x="415.675" y="-501.2" font-family="Courier,monospace" font-size="11.00">DbConnection</text>
</g>
<!-- \\LRC\\Database\\DbConnection&#45;&gt;\\Anax\\Common\\ConfigureInterface -->
<g id="edge2" class="edge"><title>\\LRC\\Database\\DbConnection&#45;&gt;\\Anax\\Common\\ConfigureInterface</title>
<path fill="none" stroke="black" stroke-dasharray="1,5" d="M366.532,-518.026C322.119,-530.966 255.779,-550.294 206.369,-564.689"/>
<polygon fill="none" stroke="black" points="205.347,-561.341 196.725,-567.499 207.305,-568.062 205.347,-561.341"/>
</g>
<!-- \\LRC\\Formatter\\Formatter -->
<g id="node10" class="node"><title>\\LRC\\Formatter\\Formatter</title>
<polygon fill="none" stroke="black" points="454.175,-442 377.175,-442 377.175,-406 454.175,-406 454.175,-442"/>
<text text-anchor="middle" x="415.675" y="-421.2" font-family="Courier,monospace" font-size="11.00">Formatter</text>
</g>
<!-- \\LRC\\Cookie\\Cookie -->
<g id="node11" class="node"><title>\\LRC\\Cookie\\Cookie</title>
<polygon fill="none" stroke="black" points="444.175,-362 387.175,-362 387.175,-326 444.175,-326 444.175,-362"/>
<text text-anchor="middle" x="415.675" y="-341.2" font-family="Courier,monospace" font-size="11.00">Cookie</text>
</g>
<!-- \\LRC\\App\\App -->
<g id="node12" class="node"><title>\\LRC\\App\\App</title>
<polygon fill="none" stroke="black" points="442.675,-282 388.675,-282 388.675,-246 442.675,-246 442.675,-282"/>
<text text-anchor="middle" x="415.675" y="-261.2" font-family="Courier,monospace" font-size="11.00">App</text>
</g>
<!-- \\LRC\\Calendar\\Month -->
<g id="node13" class="node"><title>\\LRC\\Calendar\\Month</title>
<polygon fill="none" stroke="black" points="442.675,-202 388.675,-202 388.675,-166 442.675,-166 442.675,-202"/>
<text text-anchor="middle" x="415.675" y="-181.2" font-family="Courier,monospace" font-size="11.00">Month</text>
</g>
<!-- \\LRC\\User\\User -->
<g id="node14" class="node"><title>\\LRC\\User\\User</title>
<polygon fill="none" stroke="black" points="442.675,-122 388.675,-122 388.675,-86 442.675,-86 442.675,-122"/>
<text text-anchor="middle" x="415.675" y="-101.2" font-family="Courier,monospace" font-size="11.00">User</text>
</g>
<!-- \\LRC\\User\\Functions -->
<g id="node15" class="node"><title>\\LRC\\User\\Functions</title>
<polygon fill="none" stroke="black" points="454.175,-68 377.175,-68 377.175,-32 454.175,-32 454.175,-68"/>
<text text-anchor="middle" x="415.675" y="-47.2" font-family="Courier,monospace" font-size="11.00">Functions</text>
</g>
</g>
</svg>
